PathFileType	4	(X/Y/Z)	/Users/itak/Documents/Research/Walk-IL/dataset/trc/00583_00009.trc
DataRate	CameraRate	NumFrames	NumMarkers	Units	OrigDataRate	OrigDataStartFrame	OrigNumFrames
100.000000	100.000000	4	53	mm	100.000000	445	594
Frame#	Time	RPSI			LPSI			L3			STRN			T10			C7			CLAV			RBAK			LBAK			LSHO			LUPA			LAEL			LAOL			LWTS			LWPS			LFRA			LIFD			LHPS			LHTS			RSHO			RUPA			RAEL			RAOL			RWTS			RWPS			RFRA			RIFD			RHTS			RHPS			RBHD			LFHD			RFHD			LBHD			LHIP			RHIP			RASI			LASI			LKNE			LTHI			LANK			LTIP			LTOE			LMT1			LMT5			LHEE			RKNE			RTHI			RANK			RTIP			RTOE			RMT1			RMT5			RHEE			
		X1	Y1	Z1	X2	Y2	Z2	X3	Y3	Z3	X4	Y4	Z4	X5	Y5	Z5	X6	Y6	Z6	X7	Y7	Z7	X8	Y8	Z8	X9	Y9	Z9	X10	Y10	Z10	X11	Y11	Z11	X12	Y12	Z12	X13	Y13	Z13	X14	Y14	Z14	X15	Y15	Z15	X16	Y16	Z16	X17	Y17	Z17	X18	Y18	Z18	X19	Y19	Z19	X20	Y20	Z20	X21	Y21	Z21	X22	Y22	Z22	X23	Y23	Z23	X24	Y24	Z24	X25	Y25	Z25	X26	Y26	Z26	X27	Y27	Z27	X28	Y28	Z28	X29	Y29	Z29	X30	Y30	Z30	X31	Y31	Z31	X32	Y32	Z32	X33	Y33	Z33	X34	Y34	Z34	X35	Y35	Z35	X36	Y36	Z36	X37	Y37	Z37	X38	Y38	Z38	X39	Y39	Z39	X40	Y40	Z40	X41	Y41	Z41	X42	Y42	Z42	X43	Y43	Z43	X44	Y44	Z44	X45	Y45	Z45	X46	Y46	Z46	X47	Y47	Z47	X48	Y48	Z48	X49	Y49	Z49	X50	Y50	Z50	X51	Y51	Z51	X52	Y52	Z52	X53	Y53	Z53	

446	4.45	864.54443359375	1013.682800292969	11.27507877349854	742.4611206054688	1020.078186035156	-43.24058151245117	809.694580078125	1115.705444335938	-25.50116348266602	905.9495239257812	1294.289184570312	-242.4054565429688	810.6990356445312	1240.5771484375	-19.33297348022461	855.1693115234375	1512.804931640625	-62.14767074584961	904.6480102539062	1406.201538085938	-225.8488311767578	900.9483642578125	1386.120727539062	37.11049270629883	753.6414184570312	1465.069946289062	-63.46524810791016	714.269775390625	1488.78564453125	-185.5969085693359	631.1652221679688	1365.784057617188	-204.271728515625	608.5646362304688	1149.046630859375	-235.7910766601562	628.5117797851562	1131.169067382812	-136.9534606933594	698.6495361328125	931.57421875	-346.0215148925781	618.4609375	899.97265625	-333.5723876953125	614.0286865234375	1069.091552734375	-271.8175964355469	709.7078857421875	765.5316162109375	-369.9288330078125	631.85205078125	842.9109497070312	-350.8688659667969	690.7091674804688	859.161376953125	-382.5326538085938	1015.449890136719	1469.734252929688	-56.76967239379883	1069.423828125	1406.49169921875	-12.47301197052002	1123.076416015625	1123.727661132812	16.67609024047852	1078.832275390625	1100.718383789062	57.33389663696289	1156.187622070312	929.8966064453125	-151.9568786621094	1197.631225585938	900.566162109375	-87.28876495361328	1138.0048828125	1070.026977539062	4.69651460647583	1135.905395507812	772.1659545898438	-152.4147491455078	1188.575927734375	844.6695556640625	-185.7721862792969	1208.3369140625	831.2374877929688	-116.0572814941406	965.5939331054688	1694.235595703125	-148.4194183349609	883.2971801757812	1675.472290039062	-338.2105102539062	1014.661437988281	1675.221557617188	-278.5491943359375	815.7969970703125	1691.178466796875	-223.5071563720703	674.4868774414062	943.8690185546875	-215.3021087646484	1023.637329101562	935.7784423828125	-54.35791778564453	1006.18798828125	970.2035522460938	-156.0718688964844	753.1973266601562	969.0791015625	-264.1736755371094	748.334716796875	503.0758972167969	-302.5155334472656	711.8817749023438	670.6806640625	-281.9969787597656	651.8401489257812	100.1642532348633	-44.71175384521484	685.9058837890625	300.2444152832031	-152.7566375732422	768.6615600585938	51.95112991333008	-215.5465087890625	780.0560302734375	67.11190032958984	-138.6297454833984	677.2675170898438	64.72664642333984	-156.945556640625	683.0254516601562	126.5273742675781	32.03475952148438	992.90673828125	501.4692077636719	-161.9832000732422	1036.061157226562	785.5648193359375	-110.5360336303711	923.8090209960938	41.49031066894531	-91.79103851318359	976.5410766601562	356.4465026855469	-173.9278259277344	969.907958984375	39.32125473022461	-313.5399780273438	908.7969360351562	43.78659439086914	-269.8544006347656	994.282470703125	40.44409942626953	-205.0932769775391	850.9683227539062	36.67490005493164	-65.46128845214844	
447	4.46	866.5387573242188	1014.041137695312	8.265948295593262	744.539306640625	1020.579162597656	-46.18394470214844	811.8758544921875	1115.989135742188	-28.54677200317383	908.0333862304688	1294.661254882812	-245.4337158203125	812.9861450195312	1240.91455078125	-22.21966171264648	857.572509765625	1513.156982421875	-65.01834869384766	906.8060913085938	1406.586303710938	-228.8638305664062	903.4479370117188	1386.4091796875	34.16429901123047	756.0547485351562	1465.423950195312	-66.20552062988281	716.4959106445312	1489.1884765625	-188.2219543457031	633.3101196289062	1366.201782226562	-206.8188171386719	610.599365234375	1149.402587890625	-238.2088928222656	630.723876953125	1131.685913085938	-139.3780212402344	700.1707763671875	931.3845825195312	-348.0119323730469	619.8984985351562	900.0704345703125	-335.470947265625	615.9049072265625	1069.344604492188	-274.0911560058594	710.665771484375	765.1211547851562	-371.1199035644531	633.1029052734375	842.87841796875	-352.4606018066406	692.0089721679688	858.7656860351562	-384.1129455566406	1017.869506835938	1470.023803710938	-59.91206741333008	1071.91259765625	1406.734497070312	-15.73319911956787	1125.704223632812	1123.974731445312	12.95794773101807	1081.627319335938	1100.804443359375	53.62865447998047	1158.538330078125	931.3515625	-157.0404815673828	1200.108154296875	901.5554809570312	-92.66671752929688	1140.644897460938	1070.336059570312	0.6385583281517029	1138.5830078125	773.9348754882812	-158.4662780761719	1190.990844726562	846.4885864257812	-191.5846405029297	1210.828979492188	832.4894409179688	-121.9720458984375	967.9905395507812	1694.524780273438	-151.4341278076172	885.483642578125	1675.710571289062	-341.1326904296875	1016.932861328125	1675.441284179688	-281.64306640625	818.094482421875	1691.492919921875	-226.3697052001953	676.3897094726562	944.527099609375	-218.3286590576172	1025.5498046875	935.8562622070312	-57.31212615966797	1008.097229003906	970.2396850585938	-159.0396423339844	755.127197265625	969.6578369140625	-267.1710205078125	751.1819458007812	503.831787109375	-305.2784729003906	714.0936279296875	671.215576171875	-284.890380859375	657.4268798828125	94.40622711181641	-57.56883239746094	689.66455078125	297.3130798339844	-160.5132446289062	773.9417724609375	52.64731216430664	-230.0681610107422	785.2249755859375	65.09787750244141	-152.7577056884766	682.3811645507812	62.82627868652344	-170.9382019042969	688.1826171875	118.508918762207	19.98856353759766	993.6770629882812	501.181396484375	-163.1282653808594	1037.463745117188	785.4486694335938	-112.9919738769531	923.759521484375	41.47534942626953	-91.80378723144531	976.9917602539062	356.2191467285156	-174.6733245849609	969.9308471679688	39.34615707397461	-313.5639953613281	908.6885375976562	43.46479797363281	-269.7487182617188	994.2847290039062	40.48230361938477	-205.1133880615234	850.9453735351562	36.79438018798828	-65.49928283691406	
448	4.47	868.4464111328125	1014.388122558594	5.302227020263672	746.5518798828125	1021.054992675781	-49.12888336181641	813.9872436523438	1116.247924804688	-31.5365047454834	910.0643920898438	1295.017822265625	-248.4069061279297	815.1842041015625	1241.227905273438	-25.07663345336914	859.88671875	1513.482299804688	-67.83250427246094	908.8963623046875	1406.952026367188	-231.80615234375	905.84130859375	1386.677856445312	31.2905387878418	758.387451171875	1465.7509765625	-68.89573669433594	718.6466674804688	1489.571533203125	-190.8162231445312	635.385498046875	1366.579467773438	-209.3301239013672	612.5941772460938	1149.719482421875	-240.5689086914062	632.9006958007812	1132.168334960938	-141.7429504394531	701.6261596679688	931.1043090820312	-349.866455078125	621.2482299804688	900.0906982421875	-337.211181640625	617.7279663085938	1069.541748046875	-276.2808532714844	711.5264892578125	764.6196899414062	-372.139892578125	634.2682495117188	842.7748413085938	-353.8938598632812	693.2433471679688	858.2753295898438	-385.5376281738281	1020.205383300781	1470.279052734375	-62.97344207763672	1074.294555664062	1406.942138671875	-18.89373779296875	1128.201049804688	1124.178344726562	9.351790428161621	1084.280639648438	1100.864379882812	50.0412483215332	1160.740234375	932.6508178710938	-161.8722686767578	1202.427001953125	902.4288940429688	-97.77171325683594	1143.146118164062	1070.596313476562	-3.267469167709351	1141.069091796875	775.5077514648438	-164.1921844482422	1193.223266601562	848.1146240234375	-197.0824279785156	1213.121704101562	833.5908813476562	-127.5311050415039	970.3148803710938	1694.794555664062	-154.3454284667969	887.5770874023438	1675.982055664062	-343.9410705566406	1019.117248535156	1675.68359375	-284.6311645507812	820.3023681640625	1691.8056640625	-229.1025848388672	678.2549438476562	945.1455078125	-221.3409881591797	1027.396728515625	935.9176025390625	-60.18961715698242	1009.962036132812	970.2649536132812	-161.9297180175781	757.033935546875	970.1941528320312	-270.1503295898438	753.9357299804688	504.481689453125	-307.7560729980469	716.25390625	671.6692504882812	-287.6143493652344	662.9382934570312	88.87083435058594	-70.20637512207031	693.3568725585938	294.3867492675781	-168.1422119140625	779.2422485351562	53.45695495605469	-244.0621490478516	790.3921508789062	63.32344055175781	-166.4557800292969	687.46630859375	61.06314849853516	-184.5274810791016	693.215576171875	110.7677612304688	8.06520938873291	994.4351196289062	500.8987731933594	-164.2525024414062	1038.833984375	785.3303833007812	-115.3932495117188	923.7222290039062	41.48171997070312	-91.82843017578125	977.4402465820312	356.0027465820312	-175.4129486083984	969.9671630859375	39.40757751464844	-313.5942993164062	908.5911254882812	43.16668319702148	-269.6513366699219	994.276611328125	40.49863052368164	-205.1197052001953	850.9349365234375	36.9380989074707	-65.50501251220703	
449	4.48	870.279296875	1014.713195800781	2.385111331939697	748.4932861328125	1021.50390625	-52.0710334777832	816.0287475585938	1116.483764648438	-34.47287368774414	912.0469360351562	1295.360473632812	-251.3261871337891	817.2969360351562	1241.518432617188	-27.89855003356934	862.1134643554688	1513.7783203125	-70.58836364746094	910.9215698242188	1407.29931640625	-234.6763000488281	908.1300659179688	1386.927734375	28.48660659790039	760.6380615234375	1466.056762695312	-71.53764343261719	720.7249755859375	1489.932739257812	-193.3846588134766	637.39794921875	1366.917846679688	-211.8048858642578	614.5454711914062	1149.999755859375	-242.8724822998047	635.0367431640625	1132.610229492188	-144.0544738769531	703.0176391601562	930.7427368164062	-351.5926208496094	622.5170288085938	900.0409545898438	-338.8046875	619.4944458007812	1069.687133789062	-278.3886108398438	712.3070068359375	764.0437622070312	-373.0115661621094	635.3604125976562	842.6079711914062	-355.1815795898438	694.4212036132812	857.7033081054688	-386.8214111328125	1022.455993652344	1470.501831054688	-65.94849395751953	1076.5712890625	1407.116088867188	-21.95263862609863	1130.571899414062	1124.340698242188	5.84828519821167	1086.799926757812	1100.89794921875	46.56199264526367	1162.791259765625	933.7830200195312	-166.4467163085938	1204.590942382812	903.1798706054688	-102.6016845703125	1145.512329101562	1070.809448242188	-7.029575347900391	1143.369506835938	776.871826171875	-169.5885925292969	1195.27490234375	849.5336303710938	-202.2571105957031	1215.222412109375	834.5321044921875	-132.7342987060547	972.5704956054688	1695.044921875	-157.158447265625	889.5798950195312	1676.287719726562	-346.643310546875	1021.211547851562	1675.943481445312	-287.5155334472656	822.4271240234375	1692.119140625	-231.7144470214844	680.0850219726562	945.7176513671875	-224.3389434814453	1029.181274414062	935.9659423828125	-62.98821258544922	1011.793151855469	970.281494140625	-164.7502288818359	758.9180908203125	970.6843872070312	-273.1103820800781	756.5886840820312	505.0264587402344	-309.9743041992188	718.3554077148438	672.046142578125	-290.1837158203125	668.3309936523438	83.59144592285156	-82.60935211181641	696.9734497070312	291.4891052246094	-175.5869903564453	784.6447143554688	54.39825820922852	-257.4781188964844	795.6160278320312	61.81304168701172	-179.6494750976562	692.616943359375	59.47153091430664	-197.7067565917969	698.1041870117188	103.3297348022461	-3.699008941650391	995.182861328125	500.62255859375	-165.3497161865234	1040.177490234375	785.2163696289062	-117.7460632324219	923.6995849609375	41.50663757324219	-91.86261749267578	977.88623046875	355.7964782714844	-176.138916015625	970.013671875	39.49630737304688	-313.6260375976562	908.5143432617188	42.92665100097656	-269.5748596191406	994.2584838867188	40.49594116210938	-205.1133880615234	850.924072265625	37.08263397216797	-65.49246978759766	
